<svg xmlns="http://www.w3.org/2000/svg" width="140" height="36" fill="none"><path fill="#05051B" d="M18 0a18 18 0 1 0 0 36 18 18 0 0 0 0-36Zm0 33.23a15.23 15.23 0 1 1 0-30.46 15.23 15.23 0 0 1 0 30.46Z"/><path fill="#05051B" d="M10.787 17.64a1.386 1.386 0 0 0 1.966 0l3.254-3.254A3.696 3.696 0 0 0 11.77 8.46a3.683 3.683 0 0 0-4.237 5.926l3.254 3.254Zm-1.302-6.563a.9.9 0 0 1 1.302 0 1.387 1.387 0 0 0 1.966 0 .911.911 0 0 1 1.301 0 .899.899 0 0 1 0 1.301l-2.284 2.326-2.285-2.243a.901.901 0 0 1 0-1.301v-.083Zm13.763 6.563a1.385 1.385 0 0 0 1.967 0l3.253-3.254a3.697 3.697 0 0 0-4.236-5.926 3.683 3.683 0 0 0-4.237 5.926l3.253 3.254Zm-1.301-6.563a.9.9 0 0 1 1.301 0 1.386 1.386 0 0 0 1.967 0 .912.912 0 0 1 1.301 0 .899.899 0 0 1 0 1.301l-2.284 2.326-2.285-2.243a.9.9 0 0 1 0-1.301v-.083Zm5.745 8.307a1.385 1.385 0 0 0-1.384 1.385c0 3.822-3.725 6.923-8.308 6.923s-8.308-3.101-8.308-6.923a1.384 1.384 0 1 0-2.77 0c0 5.345 4.972 9.692 11.078 9.692 6.106 0 11.077-4.347 11.077-9.692a1.385 1.385 0 0 0-1.385-1.384Zm28.458 4.314h-7.6l-1.556 4.313h-3.852l7.177-18.874h4.222l7.124 18.874h-3.958l-1.557-4.313Zm-6.385-3.354h5.172L52.35 13.21l-2.586 7.134Zm20.837 4.26c.756 0 1.477-.116 2.163-.347a4.957 4.957 0 0 0 1.795-1.118c.51-.497.915-1.118 1.213-1.863.3-.763.45-1.66.45-2.689 0-1.03-.15-1.917-.45-2.662-.298-.763-.703-1.393-1.213-1.89a4.712 4.712 0 0 0-1.768-1.118 6.306 6.306 0 0 0-2.164-.373H67.7v12.06h2.903Zm-6.544 3.407V9.137h6.702c1.337 0 2.568.213 3.694.639a8.03 8.03 0 0 1 2.903 1.863c.826.799 1.469 1.784 1.926 2.955.475 1.171.712 2.502.712 3.993 0 1.49-.237 2.822-.712 3.993-.457 1.172-1.1 2.157-1.926 2.955a8.481 8.481 0 0 1-2.93 1.837c-1.125.426-2.356.639-3.693.639h-6.676Zm25.638-10.276c.915 0 1.627-.24 2.137-.718.528-.497.792-1.154.792-1.97 0-.852-.264-1.518-.792-1.997-.51-.48-1.222-.719-2.137-.719H86.82v5.404h2.876Zm-2.903 3.168v7.108h-3.64V9.137h6.992c.914 0 1.75.15 2.506.452a5.548 5.548 0 0 1 1.953 1.225 5.008 5.008 0 0 1 1.24 1.863c.3.71.449 1.491.449 2.343 0 .852-.15 1.642-.449 2.37a5.007 5.007 0 0 1-1.24 1.863 6.104 6.104 0 0 1-1.953 1.224c-.756.284-1.592.426-2.506.426h-3.352Zm12.284 7.108V9.137h3.641v15.36h8.338v3.514h-11.98Zm14.501 0V14.913h3.51v13.098h-3.51Zm-.422-17.384c0-.62.211-1.144.633-1.57a2.079 2.079 0 0 1 1.531-.64c.615 0 1.126.214 1.53.64.422.426.633.95.633 1.57 0 .586-.211 1.092-.633 1.518-.404.426-.915.639-1.53.639a2.079 2.079 0 0 1-1.531-.64 2.082 2.082 0 0 1-.633-1.517Zm9.589 13.071c.035.515.246.976.633 1.385.387.408.968.612 1.742.612.58 0 1.011-.124 1.293-.373.281-.266.422-.576.422-.931 0-.302-.106-.56-.317-.772-.211-.231-.572-.4-1.082-.506l-1.715-.4c-1.267-.284-2.19-.772-2.771-1.464a3.76 3.76 0 0 1-.87-2.449c0-.586.123-1.136.369-1.65a4.06 4.06 0 0 1 1.003-1.358c.44-.39.95-.701 1.53-.932a5.379 5.379 0 0 1 1.953-.346c.915 0 1.689.133 2.322.4.633.248 1.143.567 1.53.958.405.39.704.807.897 1.251.194.426.308.816.343 1.171l-2.928.666a2.544 2.544 0 0 0-.185-.586 1.504 1.504 0 0 0-.37-.585 1.92 1.92 0 0 0-.659-.427c-.246-.106-.554-.16-.924-.16-.457 0-.853.125-1.187.373-.317.249-.475.56-.475.932 0 .32.105.577.317.772.228.195.518.329.87.4l1.847.399c1.285.266 2.243.763 2.877 1.49.65.728.976 1.571.976 2.53 0 .532-.106 1.056-.317 1.57a3.742 3.742 0 0 1-.923 1.385c-.423.408-.95.736-1.584.985-.633.248-1.372.372-2.216.372-.985 0-1.812-.142-2.48-.426-.669-.284-1.214-.63-1.636-1.038a4.313 4.313 0 0 1-.95-1.304c-.194-.48-.308-.905-.343-1.278l3.008-.666Zm14.59-8.785h2.612v3.142h-2.612v5.484c0 .568.123.967.369 1.198.264.213.651.32 1.161.32.211 0 .423-.01.634-.028.211-.017.36-.044.448-.08v2.929a3.921 3.921 0 0 1-.739.213c-.316.07-.73.106-1.24.106-1.266 0-2.269-.355-3.008-1.064-.739-.71-1.108-1.704-1.108-2.982v-6.096h-2.348v-3.142h.659c.686 0 1.188-.195 1.504-.585.334-.409.502-.905.502-1.491V11h3.166v3.913Z"/></svg>