<svg xmlns="http://www.w3.org/2000/svg" xml:space="preserve" style="fill-rule:evenodd;clip-rule:evenodd;stroke-linejoin:round;stroke-miterlimit:2" viewBox="0 0 36 37"><path d="M18 0A17.998 17.998 0 0 0 .346 21.512 17.999 17.999 0 0 0 32.967 28a18.005 18.005 0 0 0-2.239-22.728A18 18 0 0 0 18 0Zm0 33.231a15.23 15.23 0 1 1 0-30.46 15.23 15.23 0 0 1 0 30.46Z" style="fill:#05051b;fill-rule:nonzero"/><path d="M10.787 17.64a1.384 1.384 0 0 0 1.966 0l3.254-3.254a3.7 3.7 0 0 0 .374-4.746 3.695 3.695 0 0 0-4.611-1.18 3.685 3.685 0 0 0-5.343 3.613c.08.878.472 1.699 1.106 2.313l3.254 3.254Zm-1.302-6.563a.901.901 0 0 1 1.302 0 1.384 1.384 0 0 0 1.966 0 .92.92 0 0 1 .651-.272.921.921 0 0 1 .65.272.901.901 0 0 1 0 1.301l-2.284 2.327-2.285-2.244a.907.907 0 0 1-.278-.65.901.901 0 0 1 .278-.651v-.083Zm13.763 6.563a1.378 1.378 0 0 0 .984.409 1.391 1.391 0 0 0 .983-.409l3.253-3.254a3.694 3.694 0 0 0-1.715-6.177 3.696 3.696 0 0 0-2.521.251 3.685 3.685 0 0 0-5.343 3.613 3.68 3.68 0 0 0 1.106 2.313l3.253 3.254Zm-1.301-6.563a.901.901 0 0 1 1.301 0 1.378 1.378 0 0 0 .984.409 1.391 1.391 0 0 0 .983-.409.92.92 0 0 1 .65-.272.92.92 0 0 1 .651.272.901.901 0 0 1 0 1.301l-2.284 2.327-2.285-2.244a.907.907 0 0 1-.278-.65.896.896 0 0 1 .278-.651v-.083Zm5.745 8.308a1.383 1.383 0 0 0-1.384 1.384c0 3.822-3.725 6.923-8.308 6.923s-8.308-3.101-8.308-6.923a1.384 1.384 0 0 0-2.769 0c0 5.345 4.971 9.692 11.077 9.692s11.077-4.347 11.077-9.692a1.384 1.384 0 0 0-1.385-1.384Z" style="fill:#05051b;fill-rule:nonzero"/></svg>