<svg xmlns="http://www.w3.org/2000/svg" width="200" height="140" fill="none"><path fill="#374151" fill-rule="evenodd" d="M58.113 21.983H95.51l18.27 32.19-35.806 62.868H40.57L21.884 84.448l36.23-62.465Zm1.53 8.125L28.117 84.463l14.01 24.436 31.171-54.73-13.655-24.06Zm18.33 26.763L46.78 111.64h28.055l31.194-54.77H77.974Zm28.064-5.4h-28.06L64.304 27.383h28.06l13.672 24.088Z" clip-rule="evenodd"/><path fill="#374151" fill-rule="evenodd" d="m199.662 84.856-18.699 32.387-37.012-.273-36.543-62.443 18.702-32.392 37.571.113 35.981 62.608Zm-7.802-2.738-31.31-54.48-28.167-.085 31.813 54.361 27.664.204Zm-32.342 2.494-31.836-54.4-14.028 24.296 31.836 54.401 14.028-24.297Zm-9.355 27.003 14.03-24.3 27.696.204-14.03 24.3-27.696-.204Z" clip-rule="evenodd"/></svg>