<svg xmlns="http://www.w3.org/2000/svg" xml:space="preserve" style="fill-rule:evenodd;clip-rule:evenodd;stroke-linejoin:round;stroke-miterlimit:2" viewBox="0 0 95 99"><path d="m389.333 25.544.066.001c2.407 0 4.387-1.981 4.387-4.387 0-2.407-1.98-4.388-4.387-4.388l-.066.001c-2.381.036-4.321 2.005-4.321 4.387 0 2.381 1.94 4.35 4.321 4.386Zm67.182-3.719h.066c2.406 0 4.387-1.98 4.387-4.387 0-2.406-1.981-4.387-4.387-4.387l-.067.001c-2.381.036-4.32 2.005-4.32 4.386 0 2.382 1.939 4.351 4.321 4.387Z" style="fill:#ff37ad;fill-rule:nonzero" transform="translate(-381)"/><path d="M460.075 78.183h.066c2.406 0 4.387-1.98 4.387-4.387 0-2.406-1.981-4.387-4.387-4.387l-.067.001c-2.381.036-4.32 2.005-4.32 4.386 0 2.382 1.939 4.351 4.321 4.387Zm-52.826-69.41h.066c2.407 0 4.387-1.98 4.387-4.386 0-2.407-1.98-4.387-4.387-4.387h-.066c-2.381.036-4.321 2.005-4.321 4.387 0 2.381 1.94 4.35 4.321 4.386Z" style="fill:#fcc954;fill-rule:nonzero" transform="translate(-381)"/><path d="M433.202 39.236h-.001a3.442 3.442 0 0 1-3.425-3.425c0-.279.035-.557.102-.828.137-.549.249-1.1.333-1.65a9.415 9.415 0 0 1-3.234.705c-1.992.076-3.776-.26-5.296-.996a8.236 8.236 0 0 1-3.561-3.288c-1.635-2.834-1.494-6.562.357-9.498 1.765-2.803 4.754-4.32 7.995-4.072 2.496.195 4.684 1.13 6.436 2.734.319-.9.625-1.864.916-2.89 1.79-6.318 2.381-12.662 2.386-12.726a3.435 3.435 0 0 1 3.719-3.1 3.441 3.441 0 0 1 3.1 3.72c-.025.284-.655 7.048-2.618 13.976-.991 3.498-2.162 6.454-3.489 8.814.098.526.176 1.066.234 1.619.276 2.671.056 5.546-.635 8.313a3.437 3.437 0 0 1-3.319 2.592Zm-7.453-16.232c-.354 0-.978.104-1.48.9-.481.763-.575 1.805-.218 2.424.475.823 1.872.895 2.663.865.898-.034 1.818-.597 2.718-1.623a5.988 5.988 0 0 0-.53-.897c-.743-1.032-1.684-1.56-2.962-1.66-.048-.003-.113-.009-.191-.009Z" style="fill:#2890e9;fill-rule:nonzero" transform="translate(-381)"/><path d="M423.356 48.617c-14.201-11.194-29.044-16.044-33.153-10.832a4.73 4.73 0 0 0-.836 1.67 1.47 1.47 0 0 0-.058.226v.009c-.055.234-.096.47-.123.71l-8.04 47.073c-1.288 7.56 6.196 13.613 13.321 10.775l43.6-17.373c.769-.306 2.661-1.475 3.179-2.12a4.57 4.57 0 0 0 .384-.427c4.108-5.213-4.074-18.514-18.274-29.712v.001Z" style="fill:#f0a420;fill-rule:nonzero" transform="translate(-381)"/><path d="M441.625 78.33c4.111-5.215-4.068-18.518-18.269-29.713-14.201-11.195-29.046-16.043-33.157-10.828-4.111 5.215 4.068 18.518 18.269 29.713 14.201 11.195 29.046 16.043 33.157 10.828Z" style="fill:#fcc954;fill-rule:nonzero" transform="translate(-381)"/><path d="M439.146 75.293c3.373-4.28-4.058-15.764-16.599-25.65-12.541-9.887-25.443-14.432-28.816-10.153-3.374 4.28 4.057 15.764 16.598 25.65 12.541 9.887 25.443 14.433 28.817 10.153Z" style="fill:#f0a420;fill-rule:nonzero" transform="translate(-381)"/><path d="M409.17 92.39c-5.306.026-9.631-2.63-14.873-6.762-6.1-4.81-10.151-10.568-10.471-13.847l-1.729 10.121c.8 2.888 3.527 6.549 7.482 9.667 3.29 2.594 6.609 4.375 10.05 4.622l9.541-3.802v.001Zm-5.308-18.37c-10.164-8.014-16.767-17.21-16.581-22.47l-1.685 9.863c.13 4.698 5.62 12.29 13.43 18.447 6.998 5.517 14.29 9.4 19.874 8.653l9.479-3.778c-7.637.528-15.695-3.758-24.517-10.715Z" style="fill:#2e6ac9;fill-rule:nonzero" transform="translate(-381)"/><path d="M424.902 53.722h.066c2.407 0 4.387-1.98 4.387-4.387 0-2.406-1.98-4.387-4.387-4.387l-.066.001c-2.381.036-4.321 2.005-4.321 4.386 0 2.382 1.94 4.351 4.321 4.387Z" style="fill:#2890e9;fill-rule:nonzero" transform="translate(-381)"/><path d="m448.56 45.187.032-.036c.04-.043.114-.122.221-.23.216-.216.563-.548 1.037-.948a22.376 22.376 0 0 1 4.294-2.826c3.751-1.898 9.336-3.447 16.661-1.758.301.07.61.105.919.105 2.243 0 4.09-1.847 4.09-4.09a4.101 4.101 0 0 0-3.171-3.985c-9.482-2.186-17.021-.187-22.193 2.432a30.56 30.56 0 0 0-5.873 3.87c-.541.454-1.062.932-1.561 1.432-.194.195-.383.394-.567.598l-.044.05-.016.018-.007.008-.003.003c-.001.002-.003.004 3.097 2.67l-3.1-2.666a4.09 4.09 0 0 0-.957 2.629c0 2.243 1.847 4.09 4.09 4.09a4.09 4.09 0 0 0 3.051-1.366Z" style="fill:#ff37ad" transform="translate(-381)"/><path d="M408.048 16.017a4.356 4.356 0 0 0-8.042 2.326c0 .824.234 1.631.674 2.327.158.253 3.399 5.504 4.065 12.695.678 7.306-1.469 14.022-6.39 20.044 1.657 2.106 3.651 4.295 5.929 6.484 3.152-3.642 5.523-7.556 7.081-11.697 1.917-5.095 2.595-10.497 2.017-16.055-.921-8.842-4.768-15.226-5.334-16.124Z" style="fill:#ff37ad;fill-rule:nonzero" transform="translate(-381)"/><path d="M462.571 57.991c2.223.575 3.794 1.202 4.473 1.494a4.4 4.4 0 0 0 5.163-.415 4.398 4.398 0 0 0 1.521-3.246 4.398 4.398 0 0 0-2.985-4.232c-2.081-.924-9.965-4.044-20.387-3.49-7.015.373-13.761 2.316-20.049 5.781-5.954 3.281-11.483 7.93-16.502 13.861a73.59 73.59 0 0 0 7.47 4.669c8.475-9.659 18.253-14.895 29.148-15.587a39.213 39.213 0 0 1 12.148 1.165Z" style="fill:#2890e9;fill-rule:nonzero" transform="translate(-381)"/></svg>