<svg xmlns="http://www.w3.org/2000/svg" width="77.788" height="20.178"><path fill="#232a55" d="M7.081 7.903a7.34 7.34 0 0 0-3.618.951v10.557a.548.548 0 0 1-.525.553H.526a.548.548 0 0 1-.525-.553V5.675a.533.533 0 0 1 .525-.525h2.285a.533.533 0 0 1 .525.525v.553a6.188 6.188 0 0 1 3.76-1.263.533.533 0 0 1 .525.525v1.887a.555.555 0 0 1-.54.526zm13.835 5.863H12.36v.085c0 1.518.624 3.335 3.15 3.335 1.618-.014 3.221-.1 4.825-.27h.085c.27 0 .468.128.468.4v1.731c0 .426-.085.61-.553.681a23.519 23.519 0 0 1-5.094.44c-2.625 0-6.357-1.419-6.357-6.584V11.64c0-4.1 2.285-6.669 6.3-6.669 4.044 0 6.244 2.753 6.244 6.669v1.476c.013.421-.145.65-.512.65zm-2.966-2.568c0-2.043-1.135-3.235-2.753-3.235s-2.81 1.149-2.81 3.235v.1h5.562zm18.049 8.753h-2.412a.548.548 0 0 1-.525-.553v-8.542c0-2.285-.213-2.937-2.228-2.937a6.648 6.648 0 0 0-2.966.951v10.557a.549.549 0 0 1-.525.553h-2.412a.549.549 0 0 1-.525-.553V5.69a.533.533 0 0 1 .525-.525h2.285a.533.533 0 0 1 .525.525v.553a6.852 6.852 0 0 1 4.257-1.263c3.774 0 4.541 2.54 4.541 5.875v8.556a.569.569 0 0 1-.54.54zm14.97-.451a22.16 22.16 0 0 1-5.279.681c-4.228 0-6.272-2.5-6.272-6.584v-2.029c0-4.1 2.043-6.584 6.272-6.584a21.371 21.371 0 0 1 2.526.184V.528a.533.533 0 0 1 .525-.525h2.412a.533.533 0 0 1 .525.525V18.8c.001.37-.113.541-.709.7zm-2.75-11.511a21.385 21.385 0 0 0-2.526-.184c-2.256 0-2.809 1.6-2.809 3.76v2.015c0 2.157.553 3.76 2.809 3.76a16.676 16.676 0 0 0 2.526-.184zm18.444 5.777h-8.556v.085c0 1.518.624 3.335 3.15 3.335 1.618-.014 3.221-.1 4.825-.27h.085c.255 0 .468.128.468.4v1.731c0 .426-.085.61-.553.681a23.519 23.519 0 0 1-5.094.44c-2.625 0-6.357-1.419-6.357-6.584V11.64c0-4.1 2.285-6.669 6.3-6.669 4.044 0 6.244 2.753 6.244 6.669v1.476c.013.421-.145.65-.512.65zm-2.966-2.568c0-2.043-1.135-3.235-2.753-3.235s-2.81 1.149-2.81 3.235v.1h5.562zm13.552-3.295a7.339 7.339 0 0 0-3.618.951v10.557a.548.548 0 0 1-.525.553h-2.412a.549.549 0 0 1-.525-.553V5.675a.533.533 0 0 1 .525-.525h2.284a.533.533 0 0 1 .525.525v.553a6.188 6.188 0 0 1 3.76-1.263.533.533 0 0 1 .525.525v1.887a.546.546 0 0 1-.539.526z"/></svg>