<svg width="270" height="270" viewBox="0 0 270 270" fill="none" xmlns="http://www.w3.org/2000/svg">
<rect width="270" height="270" fill="white"/>
<path d="M181.812 187.432C184.319 179.873 183.456 171.593 179.448 164.718C173.42 154.173 161.304 148.747 149.47 151.3C144.205 145.341 136.642 141.952 128.712 142.001C116.616 141.973 105.884 149.798 102.162 161.363C94.3918 162.963 87.6844 167.85 83.7594 174.777C77.6872 185.295 79.0715 198.553 87.1839 207.572C84.6776 215.13 85.5407 223.41 89.5485 230.286C95.5759 240.831 107.693 246.256 119.526 243.703C124.787 249.662 132.354 253.051 140.284 252.999C152.387 253.031 163.123 245.198 166.844 233.623C174.615 232.023 181.322 227.136 185.247 220.209C191.312 209.691 189.925 196.444 181.816 187.425L181.812 187.432ZM140.291 245.746C135.447 245.753 130.756 244.05 127.038 240.931C127.207 240.841 127.501 240.678 127.691 240.56L149.687 227.795C150.813 227.153 151.503 225.95 151.496 224.649V193.488L160.793 198.882C160.893 198.931 160.958 199.028 160.972 199.139V224.944C160.958 236.418 151.71 245.722 140.291 245.746ZM95.8141 226.657C93.3872 222.446 92.5139 217.51 93.3458 212.719C93.5081 212.817 93.7946 212.993 93.9983 213.111L115.995 225.877C117.11 226.532 118.491 226.532 119.609 225.877L146.463 210.295V221.083C146.47 221.194 146.418 221.301 146.332 221.371L124.097 234.271C114.193 240.002 101.545 236.595 95.8175 226.657H95.8141ZM90.0249 178.409C92.4414 174.191 96.2559 170.965 100.799 169.29C100.799 169.481 100.789 169.817 100.789 170.053V195.587C100.782 196.884 101.472 198.088 102.594 198.73L129.448 214.308L120.151 219.702C120.058 219.765 119.941 219.775 119.837 219.73L97.5988 206.819C87.7155 201.068 84.3255 188.361 90.0215 178.413L90.0249 178.409ZM166.406 196.27L139.552 180.688L148.848 175.298C148.942 175.235 149.059 175.225 149.163 175.27L171.401 188.171C181.301 193.918 184.695 206.646 178.975 216.594C176.555 220.805 172.744 224.031 168.204 225.71V199.413C168.215 198.116 167.528 196.915 166.409 196.27H166.406ZM175.657 182.277C175.495 182.176 175.209 182.003 175.005 181.885L153.008 169.12C151.893 168.464 150.512 168.464 149.394 169.12L122.54 184.702V173.914C122.533 173.803 122.585 173.695 122.671 173.626L144.906 160.736C154.81 154.995 167.472 158.412 173.182 168.367C175.595 172.571 176.469 177.494 175.65 182.277H175.657ZM117.486 201.505L108.186 196.111C108.086 196.062 108.021 195.965 108.007 195.854V170.049C108.014 158.561 117.289 149.25 128.723 149.257C133.559 149.257 138.24 150.964 141.958 154.072C141.789 154.162 141.499 154.325 141.306 154.443L119.309 167.208C118.184 167.85 117.493 169.05 117.5 170.351L117.486 201.498V201.505ZM122.537 190.564L134.498 183.623L146.46 190.561V204.439L134.498 211.377L122.537 204.439V190.564Z" fill="black"/>
<path d="M43.3628 90.8102L65.7948 78.2316L66.172 77.1391L65.7948 76.5314H64.7017L60.9527 76.3006L48.1355 75.9544L37.0196 75.4928L26.2501 74.9158L23.5403 74.3388L21 70.9922L21.2617 69.3227L23.5403 67.7917L26.8043 68.0764L34.0174 68.5688L44.8408 69.315L52.6928 69.7766L64.3245 70.9845H66.172L66.4337 70.2382L65.8025 69.7766L65.3098 69.315L54.1092 61.7294L41.9848 53.7129L35.6339 49.0969L32.2006 46.7581L30.4686 44.5655L29.7219 39.7803L32.8396 36.349L37.0273 36.6337L38.0973 36.9183L42.3389 40.1803L51.3995 47.189L63.2314 55.8978L64.9634 57.3365L65.6562 56.8441L65.7409 56.4979L64.9634 55.1977L58.5279 43.5731L51.6612 31.7484L48.6051 26.8477L47.7968 23.9089C47.512 22.701 47.3041 21.6855 47.3041 20.4469L50.8529 15.6309L52.8159 15L57.5502 15.6309L59.544 17.3619L62.4846 24.0858L67.2497 34.6719L74.6398 49.0661L76.803 53.3359L77.9577 57.2903L78.3887 58.4982H79.1355V57.8058L79.7436 49.697L80.8675 39.7418L81.9606 26.9324L82.3378 23.3242L84.1238 19.0005L87.6726 16.6618L90.4439 17.985L92.7225 21.247L92.4068 23.355L91.052 32.1562L88.3962 45.9426L86.6641 55.1747H87.6726L88.8273 54.0207L93.5 47.8198L101.352 38.0108L104.816 34.118L108.858 29.8174L111.452 27.771H116.355L119.966 33.1332L118.349 38.6724L113.299 45.0733L109.112 50.4971L103.107 58.5751L99.3582 65.0375L99.7046 65.553L100.598 65.4684L114.161 62.5834L121.49 61.2601L130.235 59.7599L134.192 61.6063L134.623 63.4835L133.068 67.3225L123.715 69.6305L112.745 71.8231L96.4098 75.6851L96.2097 75.8313L96.4406 76.1159L103.8 76.8083L106.948 76.9776H114.654L129.003 78.047L132.752 80.5242L135 83.5554L134.623 85.8634L128.849 88.8023L121.059 86.9559L102.876 82.6322L96.6408 81.0782H95.7786V81.5936L100.975 86.6712L110.497 95.2647L122.421 106.343L123.03 109.082L121.498 111.244L119.881 111.013L109.404 103.135L105.363 99.5884L96.2097 91.8873H95.6015V92.6951L97.7108 95.7801L108.85 112.513L109.427 117.645L108.619 119.314L105.732 120.322L102.561 119.745L96.0403 110.598L89.3122 100.296L83.8851 91.0641L83.2231 91.4411L80.0207 125.915L78.5196 127.677L75.0555 129L72.1687 126.807L70.6368 123.261L72.1687 116.252L74.0163 107.105L75.5174 99.8345L76.8722 90.8025L77.6805 87.8021L77.6267 87.6021L76.9646 87.6867L70.1519 97.0342L59.7903 111.028L51.5919 119.799L49.6289 120.576L46.2264 118.814L46.542 115.667L48.4434 112.867L59.7903 98.442L66.6339 89.5024L71.0525 84.3401L71.0217 83.5939H70.76L40.6223 103.15L35.2567 103.843L32.9473 101.681L33.2322 98.1343L34.3253 96.9803L43.3858 90.7487L43.3551 90.7795L43.3628 90.8102Z" fill="#D97757"/>
<path d="M240 89.08C229.621 89.7169 219.833 94.1273 212.48 101.48C205.127 108.833 200.717 118.621 200.08 129H199.92C199.284 118.621 194.874 108.832 187.521 101.479C180.168 94.1259 170.379 89.7159 160 89.08V88.92C170.379 88.2841 180.168 83.8741 187.521 76.521C194.874 69.1679 199.284 59.3794 199.92 49H200.08C200.717 59.379 205.127 69.1669 212.48 76.5198C219.833 83.8727 229.621 88.2831 240 88.92V89.08Z" fill="url(#paint0_radial_75_2)"/>
<defs>
<radialGradient id="paint0_radial_75_2" cx="0" cy="0" r="1" gradientUnits="userSpaceOnUse" gradientTransform="translate(167.94 81.515) rotate(18.6832) scale(85.15 682.105)">
<stop offset="0.067" stop-color="#9168C0"/>
<stop offset="0.343" stop-color="#5684D1"/>
<stop offset="0.672" stop-color="#1BA1E3"/>
</radialGradient>
</defs>
</svg>
