<?xml version="1.0" encoding="UTF-8" standalone="no"?><!DOCTYPE svg PUBLIC "-//W3C//DTD SVG 1.1//EN" "http://www.w3.org/Graphics/SVG/1.1/DTD/svg11.dtd"><svg width="100%" height="100%" viewBox="0 0 72 72" version="1.1" xmlns="http://www.w3.org/2000/svg" xmlns:xlink="http://www.w3.org/1999/xlink" xml:space="preserve" xmlns:serif="http://www.serif.com/" style="fill-rule:evenodd;clip-rule:evenodd;stroke-linejoin:round;stroke-miterlimit:2;"><g><g><g><g><path d="M9.213,14.644c-0.123,0 -0.154,-0.061 -0.092,-0.154l0.646,-0.831c0.062,-0.092 0.216,-0.154 0.339,-0.154l10.992,0c0.123,0 0.154,0.093 0.092,0.185l-0.523,0.8c-0.062,0.093 -0.216,0.185 -0.308,0.185l-11.146,-0.031Z" style="fill:#00acd7;fill-rule:nonzero;"/></g></g></g><g><g><g><path d="M4.564,17.477c-0.123,0 -0.154,-0.062 -0.093,-0.154l0.647,-0.831c0.062,-0.093 0.216,-0.154 0.339,-0.154l14.04,-0c0.123,-0 0.185,0.092 0.154,0.185l-0.246,0.739c-0.031,0.123 -0.154,0.184 -0.278,0.184l-14.563,0.031Z" style="fill:#00acd7;fill-rule:nonzero;"/></g></g></g><g><g><g><path d="M12.015,20.31c-0.123,-0 -0.154,-0.093 -0.092,-0.185l0.431,-0.77c0.061,-0.092 0.184,-0.184 0.308,-0.184l6.158,-0c0.123,-0 0.184,0.092 0.184,0.215l-0.061,0.739c-0,0.123 -0.123,0.216 -0.216,0.216l-6.712,-0.031Z" style="fill:#00acd7;fill-rule:nonzero;"/></g></g></g><g><g id="CXHf1q_3_"><g><g><path d="M43.975,14.09c-1.94,0.493 -3.264,0.862 -5.173,1.355c-0.462,0.123 -0.492,0.154 -0.893,-0.308c-0.461,-0.523 -0.8,-0.862 -1.447,-1.17c-1.939,-0.955 -3.818,-0.677 -5.573,0.462c-2.093,1.355 -3.171,3.356 -3.14,5.85c0.03,2.463 1.724,4.495 4.156,4.834c2.094,0.277 3.849,-0.462 5.235,-2.032c0.277,-0.339 0.523,-0.708 0.831,-1.139l-5.942,-0c-0.647,-0 -0.801,-0.401 -0.586,-0.924c0.401,-0.955 1.14,-2.556 1.571,-3.356c0.092,-0.185 0.308,-0.493 0.77,-0.493l11.207,0c-0.061,0.831 -0.061,1.663 -0.185,2.494c-0.338,2.217 -1.17,4.249 -2.524,6.035c-2.217,2.925 -5.112,4.742 -8.776,5.234c-3.017,0.401 -5.819,-0.184 -8.282,-2.032c-2.279,-1.724 -3.572,-4.003 -3.91,-6.835c-0.401,-3.356 0.585,-6.374 2.617,-9.022c2.186,-2.863 5.08,-4.68 8.621,-5.326c2.894,-0.524 5.665,-0.185 8.159,1.508c1.632,1.078 2.802,2.556 3.572,4.342c0.185,0.277 0.062,0.431 -0.308,0.523Z" style="fill:#00acd7;fill-rule:nonzero;"/></g><g><path d="M54.167,31.117c-2.802,-0.062 -5.358,-0.862 -7.513,-2.709c-1.817,-1.571 -2.956,-3.572 -3.326,-5.943c-0.554,-3.479 0.401,-6.558 2.494,-9.299c2.248,-2.955 4.958,-4.495 8.622,-5.141c3.14,-0.555 6.096,-0.247 8.775,1.57c2.432,1.662 3.941,3.91 4.341,6.866c0.524,4.157 -0.677,7.544 -3.541,10.438c-2.032,2.063 -4.526,3.356 -7.389,3.941c-0.832,0.154 -1.663,0.185 -2.463,0.277Zm7.328,-12.439c-0.031,-0.4 -0.031,-0.708 -0.093,-1.016c-0.554,-3.048 -3.356,-4.773 -6.281,-4.095c-2.863,0.646 -4.711,2.463 -5.388,5.357c-0.554,2.402 0.616,4.834 2.832,5.82c1.694,0.738 3.387,0.646 5.019,-0.185c2.433,-1.263 3.757,-3.233 3.911,-5.881Z" style="fill:#00acd7;fill-rule:nonzero;"/></g></g></g></g></g><g><path d="M31.264,51.552c0,7.402 -6.01,13.412 -13.412,13.412c-7.402,0 -13.411,-6.01 -13.411,-13.412c-0,-7.402 6.009,-13.411 13.411,-13.411c7.402,-0 13.412,6.009 13.412,13.411Z" style="fill:#3178c6;"/><path d="M19.158,54.98l0,2.623c0.421,0.218 0.919,0.382 1.493,0.491c0.575,0.11 1.181,0.164 1.817,0.164c0.621,0 1.21,-0.06 1.768,-0.18c0.559,-0.12 1.048,-0.318 1.469,-0.594c0.421,-0.276 0.754,-0.637 1,-1.082c0.245,-0.445 0.368,-0.996 0.368,-1.652c-0,-0.475 -0.07,-0.892 -0.21,-1.249c-0.141,-0.358 -0.343,-0.677 -0.607,-0.955c-0.265,-0.279 -0.582,-0.529 -0.951,-0.75c-0.37,-0.221 -0.787,-0.43 -1.251,-0.627c-0.34,-0.142 -0.644,-0.28 -0.914,-0.414c-0.27,-0.134 -0.499,-0.27 -0.688,-0.41c-0.189,-0.139 -0.335,-0.287 -0.437,-0.442c-0.103,-0.156 -0.154,-0.332 -0.154,-0.529c0,-0.18 0.046,-0.343 0.138,-0.488c0.092,-0.144 0.221,-0.269 0.388,-0.373c0.167,-0.103 0.373,-0.184 0.615,-0.241c0.243,-0.058 0.513,-0.086 0.81,-0.086c0.215,-0 0.443,0.016 0.683,0.049c0.24,0.033 0.482,0.083 0.725,0.151c0.242,0.069 0.478,0.155 0.708,0.259c0.229,0.103 0.441,0.224 0.635,0.36l0,-2.45c-0.394,-0.153 -0.824,-0.267 -1.291,-0.341c-0.466,-0.073 -1.002,-0.11 -1.606,-0.11c-0.615,-0 -1.198,0.067 -1.748,0.201c-0.55,0.133 -1.035,0.342 -1.453,0.627c-0.418,0.284 -0.748,0.646 -0.991,1.086c-0.243,0.439 -0.364,0.965 -0.364,1.577c-0,0.782 0.222,1.448 0.667,2c0.445,0.552 1.121,1.019 2.028,1.401c0.356,0.148 0.687,0.293 0.995,0.435c0.307,0.142 0.573,0.289 0.797,0.442c0.224,0.153 0.401,0.32 0.53,0.5c0.13,0.181 0.194,0.386 0.194,0.615c0,0.169 -0.04,0.327 -0.121,0.471c-0.081,0.145 -0.204,0.271 -0.368,0.377c-0.165,0.107 -0.37,0.19 -0.615,0.25c-0.246,0.06 -0.533,0.09 -0.862,0.09c-0.561,0 -1.117,-0.099 -1.667,-0.299c-0.551,-0.199 -1.06,-0.498 -1.53,-0.897Zm-4.479,-6.514l3.383,-0l-0,-2.153l-9.43,0l-0,2.153l3.367,-0l-0,9.583l2.68,-0l-0,-9.583Z" style="fill:#fff;"/></g><g><path id="path1948" d="M54.181,38.001c-1.1,0.006 -2.15,0.099 -3.075,0.263c-2.723,0.481 -3.217,1.488 -3.217,3.345l-0,2.452l6.435,0l-0,0.818l-8.85,-0c-1.87,-0 -3.508,1.124 -4.02,3.262c-0.591,2.452 -0.617,3.981 -0,6.54c0.457,1.906 1.55,3.263 3.42,3.263l2.212,-0l0,-2.94c0,-2.124 1.838,-3.998 4.02,-3.998l6.428,0c1.789,0 3.217,-1.473 3.217,-3.27l0,-6.127c0,-1.744 -1.471,-3.054 -3.217,-3.345c-1.106,-0.184 -2.253,-0.268 -3.353,-0.263Zm-3.48,1.973c0.665,-0 1.208,0.552 1.208,1.23c-0,0.676 -0.543,1.222 -1.208,1.222c-0.667,0 -1.207,-0.546 -1.207,-1.222c-0,-0.678 0.54,-1.23 1.207,-1.23Z" style="fill:url(#_Linear1);fill-rule:nonzero;"/><path id="path1950" d="M61.554,44.879l-0,2.857c-0,2.216 -1.878,4.08 -4.02,4.08l-6.428,0c-1.76,0 -3.217,1.507 -3.217,3.27l-0,6.128c-0,1.744 1.516,2.77 3.217,3.27c2.037,0.599 3.991,0.707 6.428,-0c1.62,-0.469 3.217,-1.413 3.217,-3.27l0,-2.453l-6.427,0l-0,-0.817l9.645,-0c1.87,-0 2.567,-1.305 3.217,-3.263c0.672,-2.015 0.644,-3.954 0,-6.54c-0.462,-1.861 -1.345,-3.262 -3.217,-3.262l-2.415,-0Zm-3.615,15.517c0.667,0 1.207,0.547 1.207,1.223c0,0.678 -0.54,1.23 -1.207,1.23c-0.665,-0 -1.208,-0.552 -1.208,-1.23c0,-0.676 0.543,-1.223 1.208,-1.223Z" style="fill:url(#_Linear2);fill-rule:nonzero;"/></g><defs><linearGradient id="_Linear1" x1="0" y1="0" x2="1" y2="0" gradientUnits="userSpaceOnUse" gradientTransform="matrix(14.7183,12.7854,-12.7854,14.7183,41.0009,38.0013)"><stop offset="0" style="stop-color:#5a9fd4;stop-opacity:1"/><stop offset="1" style="stop-color:#306998;stop-opacity:1"/></linearGradient><linearGradient id="_Linear2" x1="0" y1="0" x2="1" y2="0" gradientUnits="userSpaceOnUse" gradientTransform="matrix(-5.25589,-7.50797,7.50797,-5.25589,57.7843,61.4128)"><stop offset="0" style="stop-color:#ffd43b;stop-opacity:1"/><stop offset="1" style="stop-color:#ffe873;stop-opacity:1"/></linearGradient></defs></svg>