<svg width="270" height="270" viewBox="0 0 270 270" fill="none" xmlns="http://www.w3.org/2000/svg">
<g clip-path="url(#clip0_179_8)">
<path d="M270 0H0V270H270V0Z" fill="white"/>
<path d="M265.921 5.00268C268.171 7.17712 269.654 10.0331 270 13.1596C270 14.4578 269.654 15.334 268.864 16.9676C268.074 18.6119 258.455 35.261 255.576 39.8695C253.932 42.574 253.066 45.7762 253.066 48.8918C253.066 52.0074 253.942 55.2204 255.576 57.9141C258.433 62.5227 268.074 79.2475 268.864 80.9243C269.654 82.5686 270 83.3583 270 84.6565C269.654 87.783 268.28 90.6389 265.997 92.7268C263.822 94.977 260.965 96.4591 257.924 96.7295C256.626 96.7295 255.749 96.3834 254.191 95.5936C252.633 94.8039 207.143 68.5159 207.143 68.5159C207.674 72.854 209.578 77.0189 212.705 80.0588C213.311 80.6646 213.928 81.1947 214.61 81.7032C214.079 81.9628 191.627 95.0744 189.96 95.8641C188.316 96.6538 187.526 97 186.152 97C183.024 96.6538 180.168 95.2799 178.079 92.9973C175.829 90.8228 174.346 87.9669 174 84.8404C174.076 83.5422 174.454 82.2441 175.136 81.1082C175.926 79.4638 185.545 62.7066 188.424 58.098C190.068 55.3935 190.934 52.2779 190.934 49.0757C190.934 45.8736 190.058 42.7471 188.424 40.0534C185.567 35.2934 175.85 18.5254 175.136 16.8918C174.444 15.7559 174.108 14.4578 174 13.1596C174.346 10.0331 175.72 7.17712 178.004 5.00268C180.179 2.75251 183.035 1.34618 186.162 1C187.461 1.07573 188.759 1.45435 189.971 2.13589C191.345 2.7417 236.738 29.5058 236.738 29.5058C236.207 24.3131 233.654 19.618 229.466 16.4158C229.791 16.2427 252.33 2.88234 254.007 2.16834C255.143 1.47598 256.442 1.14063 257.816 1.03245C260.857 1.37863 263.724 2.75251 265.888 5.03513L265.942 5.01351L265.921 5.00268ZM223.612 57.1028L230.105 50.5903C231.003 49.6815 231.003 48.3293 230.105 47.3881L223.612 40.8756C222.714 39.9669 221.362 39.9669 220.42 40.8756L213.928 47.3881C213.03 48.2968 213.03 49.6491 213.928 50.5903L220.42 57.1028C221.221 57.9033 222.671 57.9033 223.612 57.1028Z" fill="#FE6703"/>
<circle cx="79.5" cy="138.5" r="79.5" fill="#FAFF6A"/>
<path d="M39.0586 97.0938C38.4958 97.0938 38.0938 97.4954 38.0938 98.0576V178.942C38.0938 179.505 38.4958 179.906 39.0586 179.906H46.2946C46.8574 179.906 47.2594 179.505 47.2594 178.942V98.0576C47.2594 97.4954 46.8574 97.0938 46.2946 97.0938H39.0586Z" fill="#1E1E1E"/>
<path d="M57.4703 97.0938C56.9075 97.0938 56.5055 97.4954 56.5055 98.0576V178.942C56.5055 179.505 56.9075 179.906 57.4703 179.906H64.7063C65.2691 179.906 65.6711 179.505 65.6711 178.942V98.0576C65.6711 97.4954 65.2691 97.0938 64.7063 97.0938H57.4703Z" fill="#1E1E1E"/>
<path d="M75.882 97.0938C75.3192 97.0938 74.9172 97.4954 74.9172 98.0576V178.942C74.9172 179.505 75.3192 179.906 75.882 179.906H83.118C83.6808 179.906 84.0828 179.505 84.0828 178.942V98.0576C84.0828 97.4954 83.6808 97.0938 83.118 97.0938H75.882Z" fill="#1E1E1E"/>
<path d="M94.2937 97.0938C93.7309 97.0938 93.3289 97.4954 93.3289 98.0576V178.942C93.3289 179.505 93.7309 179.906 94.2937 179.906H101.53C102.093 179.906 102.495 179.505 102.495 178.942V98.0576C102.495 97.4954 102.093 97.0938 101.53 97.0938H94.2937Z" fill="#1E1E1E"/>
<path d="M112.705 129.303C112.143 129.303 111.741 129.705 111.741 130.267V146.733C111.741 147.295 112.143 147.697 112.705 147.697H119.941C120.504 147.697 120.906 147.295 120.906 146.733V130.267C120.906 129.705 120.504 129.303 119.941 129.303H112.705Z" fill="#1E1E1E"/>
<path d="M205.48 224.083L179 210.287V237.896L179.016 237.888L205.495 251.684V224.075L205.48 224.083Z" fill="black"/>
<path d="M179 182.699L205.496 196.503L205.496 224.1L231.983 210.3L231.992 210.304V182.695L231.988 182.697L205.496 168.894L179 182.699Z" fill="black"/>
</g>
<defs>
<clipPath id="clip0_179_8">
<rect width="270" height="270" fill="white"/>
</clipPath>
</defs>
</svg>
