<svg width="270" height="270" viewBox="0 0 270 270" fill="none" xmlns="http://www.w3.org/2000/svg">
<g clip-path="url(#clip0_179_8)">
<path d="M270 0H0V270H270V0Z" fill="white"/>
<path d="M246.983 27.9603C248.648 29.5685 249.744 31.6807 250 33.993C250 34.9531 249.744 35.6012 249.16 36.8093C248.576 38.0255 241.461 50.3389 239.332 53.7472C238.116 55.7475 237.476 58.1157 237.476 60.42C237.476 62.7243 238.124 65.1005 239.332 67.0927C241.445 70.5011 248.576 82.8705 249.16 84.1107C249.744 85.3268 250 85.9109 250 86.871C249.744 89.1832 248.728 91.2955 247.039 92.8396C245.431 94.5038 243.318 95.5999 241.069 95.8C240.109 95.8 239.461 95.5439 238.308 94.9599C237.156 94.3758 203.512 74.9336 203.512 74.9336C203.904 78.142 205.313 81.2223 207.626 83.4706C208.074 83.9186 208.53 84.3107 209.034 84.6867C208.642 84.8787 192.036 94.5758 190.804 95.1599C189.588 95.744 189.003 96 187.987 96C185.674 95.744 183.562 94.7279 182.017 93.0397C180.352 91.4315 179.256 89.3192 179 87.007C179.056 86.0469 179.336 85.0868 179.84 84.2467C180.424 83.0305 187.539 70.6371 189.668 67.2288C190.884 65.2285 191.524 62.9243 191.524 60.556C191.524 58.1877 190.876 55.8755 189.668 53.8833C187.555 50.3629 180.368 37.9615 179.84 36.7533C179.328 35.9132 179.08 34.9531 179 33.993C179.256 31.6807 180.272 29.5685 181.961 27.9603C183.57 26.2961 185.682 25.256 187.995 25C188.955 25.056 189.916 25.336 190.812 25.8401C191.828 26.2881 225.4 46.0824 225.4 46.0824C225.008 42.242 223.119 38.7696 220.022 36.4013C220.262 36.2733 236.932 26.3921 238.172 25.8641C239.012 25.352 239.973 25.104 240.989 25.024C243.238 25.28 245.359 26.2961 246.959 27.9843L246.999 27.9683L246.983 27.9603ZM215.692 66.4927L220.494 61.6761C221.158 61.0041 221.158 60.0039 220.494 59.3079L215.692 54.4913C215.028 53.8193 214.028 53.8193 213.332 54.4913L208.53 59.3079C207.866 59.9799 207.866 60.9801 208.53 61.6761L213.332 66.4927C213.924 67.0847 214.996 67.0847 215.692 66.4927Z" fill="#FE6703"/>
<circle cx="87.5" cy="146.5" r="71.5" fill="#FAFF6A"/>
<path d="M51.1281 109.26C50.622 109.26 50.2604 109.622 50.2604 110.127V182.873C50.2604 183.378 50.622 183.74 51.1281 183.74H57.636C58.1422 183.74 58.5037 183.378 58.5037 182.873V110.127C58.5037 109.622 58.1422 109.26 57.636 109.26H51.1281Z" fill="#1E1E1E"/>
<path d="M67.6871 109.26C67.1809 109.26 66.8194 109.622 66.8194 110.127V182.873C66.8194 183.378 67.1809 183.74 67.6871 183.74H74.195C74.7011 183.74 75.0627 183.378 75.0627 182.873V110.127C75.0627 109.622 74.7011 109.26 74.195 109.26H67.6871Z" fill="#1E1E1E"/>
<path d="M84.246 109.26C83.7399 109.26 83.3783 109.622 83.3783 110.127V182.873C83.3783 183.378 83.7399 183.74 84.246 183.74H90.7539C91.2601 183.74 91.6217 183.378 91.6217 182.873V110.127C91.6217 109.622 91.2601 109.26 90.7539 109.26H84.246Z" fill="#1E1E1E"/>
<path d="M100.805 109.26C100.299 109.26 99.9373 109.622 99.9373 110.127V182.873C99.9373 183.378 100.299 183.74 100.805 183.74H107.313C107.819 183.74 108.181 183.378 108.181 182.873V110.127C108.181 109.622 107.819 109.26 107.313 109.26H100.805Z" fill="#1E1E1E"/>
<path d="M117.364 138.229C116.858 138.229 116.496 138.59 116.496 139.096V153.905C116.496 154.41 116.858 154.772 117.364 154.772H123.872C124.378 154.772 124.74 154.41 124.74 153.905V139.096C124.74 138.59 124.378 138.229 123.872 138.229H117.364Z" fill="#1E1E1E"/>
<path d="M201.628 216.072L179 204.246V227.911L179.013 227.904L201.642 239.729V216.065L201.628 216.072Z" fill="black"/>
<path d="M179 180.599L201.642 192.431L201.642 216.086L224.277 204.257L224.284 204.261V180.596L224.281 180.597L201.642 168.766L179 180.599Z" fill="black"/>
</g>
<defs>
<clipPath id="clip0_179_8">
<rect width="270" height="270" fill="white"/>
</clipPath>
</defs>
</svg>
