<?xml version="1.0" encoding="UTF-8" standalone="no"?><!DOCTYPE svg PUBLIC "-//W3C//DTD SVG 1.1//EN" "http://www.w3.org/Graphics/SVG/1.1/DTD/svg11.dtd"><svg width="100%" height="100%" viewBox="0 0 72 72" version="1.1" xmlns="http://www.w3.org/2000/svg" xmlns:xlink="http://www.w3.org/1999/xlink" xml:space="preserve" xmlns:serif="http://www.serif.com/" style="fill-rule:evenodd;clip-rule:evenodd;stroke-linejoin:round;stroke-miterlimit:2;"><g id="g6628"><path id="path3806" d="M49.403,10.016l0,51.698c0,5.789 3.99,9.008 8.225,9.008c3.916,0 8.225,-2.741 8.225,-9.008l-0,-51.306c-0,-5.3 -3.917,-8.617 -8.225,-8.617c-4.308,0 -8.225,3.66 -8.225,8.225Z" style="fill:#f8ab00;fill-rule:nonzero;"/><path id="path3808" d="M27.862,36.257l0,25.457c0,5.789 3.99,9.008 8.225,9.008c3.917,0 8.225,-2.741 8.225,-9.008l-0,-25.066c-0,-5.299 -3.917,-8.616 -8.225,-8.616c-4.308,0 -8.225,3.66 -8.225,8.225Z" style="fill:#e37300;fill-rule:nonzero;"/><path id="path3810" d="M22.771,62.497c-0,4.541 -3.684,8.225 -8.225,8.225c-4.541,0 -8.225,-3.684 -8.225,-8.225c0,-4.54 3.684,-8.224 8.225,-8.224c4.541,-0 8.225,3.684 8.225,8.224" style="fill:#e37300;fill-rule:nonzero;"/></g></svg>