<svg width="270" height="270" viewBox="0 0 270 270" fill="none" xmlns="http://www.w3.org/2000/svg">
<g clip-path="url(#clip0_628_2)">
<path d="M270 0H0V270H270V0Z" fill="white"/>
<path d="M138.037 179.518C138.335 179.48 138.638 179.503 138.927 179.586C139.216 179.669 139.485 179.81 139.718 179.999C139.95 180.188 140.143 180.422 140.282 180.688L140.286 180.696L140.291 180.704L153.903 204.301L154.131 204.695L154.545 204.506C164.868 199.786 176.487 197.155 188.991 197.155C201.495 197.155 213.115 199.786 223.434 204.506L223.848 204.695L224.075 204.301L237.687 180.704L237.688 180.703C237.832 180.451 238.025 180.229 238.256 180.052C238.485 179.875 238.747 179.745 239.026 179.67C239.451 179.564 239.898 179.584 240.312 179.729C240.726 179.874 241.088 180.138 241.354 180.486C241.619 180.835 241.775 181.254 241.804 181.69C241.832 182.127 241.732 182.562 241.515 182.941L228.076 206.235L227.819 206.68L228.271 206.925C251.158 219.328 266.704 242.423 269.446 269.5H108.554C111.288 242.423 126.825 219.328 149.695 206.925L150.146 206.68L149.89 206.235L136.455 182.941L136.449 182.931L136.442 182.921L136.331 182.726C136.229 182.526 136.158 182.312 136.12 182.091C136.07 181.796 136.08 181.493 136.15 181.202C136.22 180.911 136.349 180.636 136.528 180.396C136.707 180.155 136.933 179.954 137.192 179.803C137.452 179.652 137.739 179.555 138.037 179.518ZM151.434 233.146C150.352 233.197 149.296 233.487 148.341 233.995C147.385 234.504 146.554 235.218 145.909 236.086C145.264 236.954 144.82 237.955 144.609 239.016C144.399 240.076 144.427 241.17 144.691 242.218C144.956 243.266 145.45 244.243 146.139 245.077C146.827 245.911 147.693 246.583 148.673 247.043C149.651 247.501 150.718 247.736 151.798 247.733L151.799 247.734H151.804V247.733C153.49 247.728 155.123 247.142 156.426 246.071C157.729 245 158.621 243.512 158.95 241.858C159.279 240.205 159.025 238.489 158.23 237.002C157.436 235.515 156.151 234.348 154.594 233.699C153.595 233.283 152.515 233.094 151.434 233.146ZM228.965 233.698C227.632 233.145 226.165 233.001 224.75 233.281H224.749C223.335 233.567 222.036 234.263 221.017 235.282C219.997 236.302 219.302 237.599 219.018 239.012C218.803 240.069 218.827 241.162 219.087 242.209C219.347 243.256 219.837 244.233 220.521 245.068C221.206 245.903 222.069 246.575 223.046 247.036C224.021 247.496 225.086 247.734 226.165 247.733L226.166 247.734H226.171V247.733C227.49 247.726 228.783 247.364 229.912 246.684C231.042 246.003 231.967 245.029 232.589 243.866C233.21 242.704 233.506 241.394 233.443 240.078C233.381 238.762 232.964 237.487 232.235 236.388L232.234 236.387C231.435 235.187 230.297 234.251 228.965 233.698Z" fill="#32DE84" stroke="#32DE84"/>
<path d="M130.692 63.5951C129.726 64.3398 112.747 73.9185 112.747 95.2206C112.747 119.855 134.355 128.572 135 128.788C134.901 129.321 131.567 140.724 123.61 152.344C116.509 162.573 109.098 172.783 97.821 172.783C86.5439 172.783 83.6435 166.226 70.6242 166.226C57.9393 166.226 53.4285 173 43.1167 173C32.8002 173 25.6053 163.534 17.3276 151.915C7.74088 138.268 0 117.065 0 96.9459C0 64.6698 20.958 47.5537 41.591 47.5537C52.5526 47.5537 61.6871 54.7612 68.5711 54.7612C75.1207 54.7612 85.3339 47.1247 97.8069 47.1247C102.53 47.1247 119.514 47.5537 130.692 63.5951ZM91.8835 33.4591C97.0442 27.3358 100.693 18.8366 100.693 10.3327C100.693 9.15426 100.59 7.96164 100.378 7C91.9869 7.31112 82.0002 12.5907 75.9826 19.5814C71.2552 24.96 66.8433 33.4591 66.8433 42.0761C66.8433 43.3724 67.0597 44.6687 67.1586 45.0836C67.6907 45.1826 68.5523 45.2957 69.414 45.2957C76.943 45.2957 86.4122 40.2519 91.8835 33.4591Z" fill="black"/>
<path d="M215.438 62.7141C216.238 61.5277 217.115 61.3729 217.83 61.3729C218.54 61.3729 219.726 61.5277 220.527 62.7141C230.969 77.1884 252.624 115.37 254.626 117.449C257.592 120.529 261.662 118.61 264.024 115.118C266.356 111.677 267 109.263 267 106.689C267 104.935 233.276 41.6217 229.874 36.3499C226.61 31.2793 225.545 30 219.959 30H215.777C210.201 30 209.395 31.2793 206.131 36.3447C202.724 41.6269 169 104.94 169 106.694C169 109.273 169.644 111.682 171.976 115.123C174.338 118.615 178.408 120.539 181.374 117.454C183.376 115.375 205 77.1935 215.438 62.7244V62.7141Z" fill="black"/>
</g>
<defs>
<clipPath id="clip0_628_2">
<rect width="270" height="270" fill="white"/>
</clipPath>
</defs>
</svg>
