<?xml version="1.0" encoding="UTF-8" standalone="no"?><!DOCTYPE svg PUBLIC "-//W3C//DTD SVG 1.1//EN" "http://www.w3.org/Graphics/SVG/1.1/DTD/svg11.dtd"><svg width="100%" height="100%" viewBox="0 0 72 72" version="1.1" xmlns="http://www.w3.org/2000/svg" xmlns:xlink="http://www.w3.org/1999/xlink" xml:space="preserve" xmlns:serif="http://www.serif.com/" style="fill-rule:evenodd;clip-rule:evenodd;stroke-linejoin:round;stroke-miterlimit:2;"><g><path d="M1.685,7.425c0,-3.17 2.57,-5.74 5.74,-5.74l22.958,0c3.17,0 5.74,2.57 5.74,5.74l0,5.739c0,1.585 -1.285,2.87 -2.87,2.87l-28.698,0c-1.585,0 -2.87,-1.285 -2.87,-2.87l0,-5.739Z" style="fill:#0f0f0f;fill-rule:nonzero;"/><path d="M36.123,59.082c0,-1.585 1.285,-2.87 2.87,-2.87l28.698,0c1.585,0 2.87,1.285 2.87,2.87l0,5.74c0,3.17 -2.569,5.739 -5.739,5.739l-22.959,0c-3.17,0 -5.74,-2.569 -5.74,-5.739l0,-5.74Z" style="fill:#0f0f0f;fill-rule:nonzero;"/><path d="M1.685,26.079c0,-1.585 1.285,-2.87 2.87,-2.87l60.267,-0c3.17,-0 5.739,2.57 5.739,5.74l0,17.219c0,1.585 -1.285,2.869 -2.87,2.869l-60.266,0c-3.17,0 -5.74,-2.569 -5.74,-5.739l0,-17.219Z" style="fill:#0f0f0f;fill-rule:nonzero;"/></g></svg>