<?xml version="1.0" encoding="UTF-8" standalone="no"?><!DOCTYPE svg PUBLIC "-//W3C//DTD SVG 1.1//EN" "http://www.w3.org/Graphics/SVG/1.1/DTD/svg11.dtd"><svg width="100%" height="100%" viewBox="0 0 72 72" version="1.1" xmlns="http://www.w3.org/2000/svg" xmlns:xlink="http://www.w3.org/1999/xlink" xml:space="preserve" xmlns:serif="http://www.serif.com/" style="fill-rule:evenodd;clip-rule:evenodd;stroke-linejoin:round;stroke-miterlimit:2;"><g id="W-Mark" serif:id="W Mark"><g opacity="0"><rect x="-15.547" y="-15.414" width="103.267" height="103.267" style="fill:#fff;"/></g><path d="M36.087,1.797c-19.011,-0 -34.422,15.411 -34.422,34.422c-0,19.011 15.411,34.423 34.422,34.423c19.011,-0 34.422,-15.412 34.422,-34.423c0,-19.011 -15.411,-34.422 -34.422,-34.422m0,2.065c4.369,0 8.606,0.855 12.594,2.542c1.917,0.811 3.766,1.814 5.496,2.983c1.714,1.158 3.325,2.488 4.79,3.952c1.465,1.465 2.794,3.077 3.952,4.79c1.169,1.73 2.172,3.579 2.983,5.496c1.687,3.988 2.542,8.225 2.542,12.594c0,4.369 -0.855,8.607 -2.542,12.594c-0.811,1.917 -1.814,3.766 -2.983,5.496c-1.158,1.714 -2.487,3.325 -3.952,4.79c-1.465,1.465 -3.076,2.795 -4.79,3.952c-1.73,1.169 -3.579,2.173 -5.496,2.983c-3.988,1.687 -8.225,2.542 -12.594,2.542c-4.369,0 -8.606,-0.855 -12.594,-2.542c-1.917,-0.81 -3.766,-1.814 -5.496,-2.983c-1.713,-1.157 -3.325,-2.487 -4.79,-3.952c-1.465,-1.465 -2.794,-3.076 -3.952,-4.79c-1.169,-1.73 -2.172,-3.579 -2.983,-5.496c-1.687,-3.987 -2.542,-8.225 -2.542,-12.594c0,-4.369 0.855,-8.606 2.542,-12.594c0.811,-1.917 1.814,-3.766 2.983,-5.496c1.158,-1.713 2.487,-3.325 3.952,-4.79c1.465,-1.464 3.077,-2.794 4.79,-3.952c1.73,-1.169 3.579,-2.172 5.496,-2.983c3.988,-1.687 8.225,-2.542 12.594,-2.542" style="fill:#32373c;fill-rule:nonzero;"/><path d="M61.259,22.457c0.124,0.914 0.193,1.894 0.193,2.949c0,2.91 -0.545,6.182 -2.182,10.275l-8.761,25.331c8.528,-4.972 14.263,-14.211 14.263,-24.794c0,-4.987 -1.274,-9.676 -3.513,-13.761m-24.668,16.27l-8.608,25.009c2.571,0.756 5.289,1.169 8.104,1.169c3.34,-0 6.545,-0.577 9.526,-1.627c-0.076,-0.123 -0.147,-0.253 -0.205,-0.395l-8.817,-24.156Zm18.861,-3.956c0,-3.546 -1.274,-6 -2.365,-7.91c-1.454,-2.364 -2.818,-4.364 -2.818,-6.728c0,-2.637 2,-5.091 4.818,-5.091c0.127,-0 0.247,0.015 0.371,0.023c-5.104,-4.676 -11.903,-7.531 -19.371,-7.531c-10.022,-0 -18.838,5.142 -23.967,12.929c0.673,0.021 1.308,0.034 1.846,0.034c2.999,0 7.645,-0.364 7.645,-0.364c1.546,-0.091 1.728,2.181 0.184,2.364c-0,-0 -1.555,0.182 -3.283,0.272l10.445,31.072l6.279,-18.827l-4.469,-12.245c-1.546,-0.09 -3.009,-0.272 -3.009,-0.272c-1.546,-0.092 -1.365,-2.455 0.182,-2.364c0,-0 4.736,0.364 7.555,0.364c2.999,0 7.646,-0.364 7.646,-0.364c1.546,-0.091 1.728,2.181 0.183,2.364c-0,-0 -1.556,0.182 -3.283,0.272l10.366,30.835l2.96,-9.377c1.314,-4.098 2.085,-7.001 2.085,-9.456m-48.05,1.447c-0,11.354 6.597,21.167 16.167,25.816l-13.683,-37.49c-1.592,3.567 -2.484,7.515 -2.484,11.674" style="fill:#32373c;fill-rule:nonzero;"/></g></svg>