<?xml version="1.0" encoding="UTF-8" standalone="no"?><!DOCTYPE svg PUBLIC "-//W3C//DTD SVG 1.1//EN" "http://www.w3.org/Graphics/SVG/1.1/DTD/svg11.dtd"><svg width="100%" height="100%" viewBox="0 0 72 72" version="1.1" xmlns="http://www.w3.org/2000/svg" xmlns:xlink="http://www.w3.org/1999/xlink" xml:space="preserve" xmlns:serif="http://www.serif.com/" style="fill-rule:evenodd;clip-rule:evenodd;stroke-linejoin:round;stroke-miterlimit:2;"><g id="W-Mark" serif:id="W Mark"><g opacity="0"><rect x="-4.715" y="-3.8" width="49.019" height="49.019" style="fill:#fff;"/></g><path d="M19.795,4.37c-9.024,-0 -16.34,7.315 -16.34,16.339c0,9.024 7.316,16.34 16.34,16.34c9.024,-0 16.339,-7.316 16.339,-16.34c0,-9.024 -7.315,-16.339 -16.339,-16.339m-0,0.98c2.074,0 4.085,0.406 5.978,1.207c0.91,0.385 1.787,0.861 2.608,1.416c0.814,0.549 1.579,1.18 2.274,1.876c0.696,0.695 1.327,1.46 1.876,2.274c0.555,0.821 1.031,1.698 1.416,2.608c0.801,1.893 1.207,3.904 1.207,5.978c-0,2.074 -0.406,4.086 -1.207,5.979c-0.385,0.909 -0.861,1.787 -1.416,2.608c-0.549,0.814 -1.18,1.579 -1.876,2.274c-0.695,0.695 -1.46,1.326 -2.274,1.876c-0.821,0.555 -1.698,1.031 -2.608,1.416c-1.893,0.801 -3.904,1.207 -5.978,1.207c-2.074,-0 -4.086,-0.406 -5.978,-1.207c-0.91,-0.385 -1.788,-0.861 -2.609,-1.416c-0.814,-0.55 -1.579,-1.181 -2.274,-1.876c-0.695,-0.695 -1.326,-1.46 -1.876,-2.274c-0.555,-0.821 -1.031,-1.699 -1.416,-2.608c-0.801,-1.893 -1.207,-3.905 -1.207,-5.979c0,-2.074 0.406,-4.085 1.207,-5.978c0.385,-0.91 0.861,-1.787 1.416,-2.608c0.55,-0.814 1.181,-1.579 1.876,-2.274c0.695,-0.696 1.46,-1.327 2.274,-1.876c0.821,-0.555 1.699,-1.031 2.609,-1.416c1.892,-0.801 3.904,-1.207 5.978,-1.207" style="fill:#32373c;fill-rule:nonzero;"/><path d="M31.743,14.177c0.059,0.433 0.092,0.899 0.092,1.4c-0,1.381 -0.259,2.934 -1.036,4.877l-4.158,12.024c4.048,-2.36 6.77,-6.746 6.77,-11.769c0,-2.367 -0.605,-4.593 -1.668,-6.532m-11.709,7.723l-4.086,11.871c1.22,0.359 2.51,0.555 3.847,0.555c1.585,-0 3.106,-0.274 4.522,-0.772c-0.037,-0.059 -0.07,-0.12 -0.098,-0.188l-4.185,-11.466Zm8.953,-1.878c-0,-1.683 -0.605,-2.848 -1.123,-3.755c-0.69,-1.122 -1.337,-2.071 -1.337,-3.194c-0,-1.251 0.949,-2.416 2.286,-2.416c0.061,-0 0.118,0.007 0.177,0.011c-2.423,-2.22 -5.65,-3.575 -9.195,-3.575c-4.758,0 -8.942,2.441 -11.377,6.137c0.32,0.01 0.621,0.017 0.876,0.017c1.424,-0 3.629,-0.174 3.629,-0.174c0.734,-0.042 0.821,1.036 0.087,1.123c0,-0 -0.738,0.086 -1.558,0.129l4.958,14.749l2.981,-8.937l-2.122,-5.812c-0.733,-0.043 -1.428,-0.129 -1.428,-0.129c-0.734,-0.044 -0.648,-1.165 0.087,-1.123c-0,0 2.248,0.174 3.586,0.174c1.423,-0 3.629,-0.174 3.629,-0.174c0.734,-0.042 0.82,1.036 0.087,1.123c-0,-0 -0.739,0.086 -1.559,0.129l4.921,14.637l1.405,-4.451c0.624,-1.946 0.99,-3.324 0.99,-4.489m-22.809,0.687c0,5.389 3.132,10.047 7.675,12.254l-6.496,-17.795c-0.755,1.693 -1.179,3.567 -1.179,5.541" style="fill:#32373c;fill-rule:nonzero;"/></g><g id="Page-1"><g id="LSH-00-Copy-20"><g id="Group-20"><g id="liferay_logo"><g id="Layer_1"><path id="Shape" d="M38.346,34.752c-1.907,0 -3.469,1.563 -3.469,3.472l0,26.032c0,1.906 1.562,3.469 3.469,3.469l26.006,0c1.907,0 3.468,-1.563 3.468,-3.472l0,-26.029c-0.003,-1.909 -1.564,-3.472 -3.471,-3.472l-26.003,0Zm5.201,3.472l0,5.207l-5.201,-0l-0,-5.207l5.201,0Zm6.934,0l-0,5.207l-5.201,-0l-0,-5.207l5.201,0Zm6.934,0l-0,5.207l-5.201,-0l-0,-5.207l5.201,0Zm-13.868,6.941l0,5.206l-5.201,0l-0,-5.206l5.201,0Zm6.934,0l-0,5.206l-5.201,0l-0,-5.206l5.201,0Zm13.868,0l-0,5.206l-5.202,0l0,-5.206l5.202,0Zm-20.802,6.941l0,5.206l-5.201,0l-0,-5.206l5.201,-0Zm13.868,-0l-0,5.206l-5.201,0l-0,-5.206l5.201,-0Zm6.934,-0l-0,5.206l-5.202,0l0,-5.206l5.202,-0Zm-13.868,6.941l-0,5.206l-5.201,-0l-0,-5.206l5.201,-0Zm6.934,-0l-0,5.206l-5.201,-0l-0,-5.206l5.201,-0Zm6.934,-0l-0,5.206l-5.202,-0l0,-5.206l5.202,-0Z" style="fill:#0d63ce;fill-rule:nonzero;"/></g></g></g></g></g></svg>