<svg width="30" height="26" viewBox="0 0 30 26" fill="none" xmlns="http://www.w3.org/2000/svg">
<path d="M29.3072 12.6447L22.8002 11.4409L22.0556 12.7302L20.223 15.9031L15.4648 24.1415C15.2564 24.5022 14.707 24.3538 14.707 23.9369V17.0131V16.2615C14.707 15.8712 14.4318 15.5356 14.0504 15.4607L6.63709 14.0044L0.000976562 12.7911C0.0110566 13.1358 0.0924761 13.4789 0.247506 13.7964L5.72449 23.3006C6.48859 24.6266 7.89939 25.4424 9.42519 25.4404L19.9285 25.4264C21.4535 25.4244 22.8615 24.6057 23.6225 23.2788L28.9826 13.9316C29.2111 13.5341 29.3185 13.0882 29.3072 12.6447Z" fill="url(#paint0_linear_328_282)"/>
<path d="M7.38376 12.7086L9.21916 9.52346L13.9491 1.31535C14.1572 0.95426 14.7071 1.10248 14.7071 1.51969V9.19106C14.7071 9.58176 14.9829 9.91766 15.3649 9.99206L22.8003 11.4408L29.3073 12.6446C29.299 12.3188 29.2259 11.9948 29.0882 11.6918C29.0558 11.6205 29.021 11.55 28.9815 11.4814L23.6146 2.14393C22.852 0.8173 21.4425 0 19.9171 0H9.37786C7.84996 0 6.43856 0.81987 5.67696 2.14985L0.325333 11.495C0.313013 11.5164 0.302324 11.5385 0.290704 11.5602C0.0852435 11.9438 -0.0113164 12.3684 0.00105355 12.7909L6.63716 14.0042L7.38376 12.7086Z" fill="url(#paint1_linear_328_282)"/>
<defs>
<linearGradient id="paint0_linear_328_282" x1="28.6951" y1="18.3653" x2="0.527956" y2="18.6262" gradientUnits="userSpaceOnUse">
<stop stop-color="#3585A3"/>
<stop offset="1" stop-color="#00DEAE"/>
</linearGradient>
<linearGradient id="paint1_linear_328_282" x1="1.41943" y1="7.17456" x2="26.4425" y2="6.52216" gradientUnits="userSpaceOnUse">
<stop stop-color="#3585A3"/>
<stop offset="1" stop-color="#00DEAE"/>
</linearGradient>
</defs>
</svg>
