<svg viewBox="0 0 81 41" fill="none" xmlns="http://www.w3.org/2000/svg">
<path d="M59.8966 0.148926H20.4063C9.15426 0.148926 0 9.27847 0 20.5002C0 31.7218 9.15426 40.8514 20.4063 40.8514H59.8966C71.1486 40.8514 80.3029 31.7218 80.3029 20.5002C80.3029 9.27847 71.1486 0.148926 59.8966 0.148926ZM40.4188 32.0556C39.7678 32.1899 39.0352 32.2143 38.5373 31.6954C38.3536 32.1166 37.9251 31.8948 37.5945 31.8399C37.5639 31.9253 37.5374 32.0006 37.5088 32.0861C36.4089 32.1594 35.5845 31.0401 35.0601 30.1955C34.0193 29.6338 32.8378 29.2919 31.7746 28.7037C31.7134 29.6725 31.9257 30.8732 31.0012 31.498C30.9543 33.3601 33.8255 31.7178 34.0887 33.1057C33.8847 33.1281 33.6582 33.0731 33.4949 33.2298C32.746 33.9564 31.8869 32.6804 31.0237 33.2075C29.8646 33.7895 29.7483 34.2657 28.3137 34.3858C28.2342 34.2657 28.2668 34.1863 28.3341 34.1131C28.7382 33.645 28.7668 33.0935 29.4565 32.894C28.7464 32.7821 28.1525 33.1729 27.5546 33.4822C26.7771 33.7997 26.7833 32.7658 25.5875 33.5371C25.4548 33.4293 25.5181 33.3316 25.5936 33.2482C25.8976 32.8778 26.2976 32.8228 26.7486 32.8432C24.5304 31.6099 23.4856 34.3512 22.4612 32.9877C22.1531 33.0691 22.0368 33.3458 21.8429 33.5412C21.6756 33.3581 21.8021 33.1362 21.8103 32.9205C21.6103 32.8269 21.3572 32.7821 21.4164 32.4626C21.0246 32.3303 20.7512 32.5623 20.4594 32.7821C20.1961 32.5786 20.6369 32.2815 20.7185 32.0698C20.9532 31.6628 21.4878 31.9864 21.7592 31.6933C22.5306 31.2558 23.606 31.966 24.4876 31.846C25.1671 31.9314 26.0078 31.2354 25.667 30.5414C24.9406 29.6155 25.0691 28.4046 25.0528 27.2975C24.963 26.6523 23.4101 25.8301 22.9612 25.1341C22.4061 24.5073 21.9735 23.7808 21.5409 23.0665C19.9798 20.0524 20.4716 16.1796 18.5044 13.3813C17.6147 13.8718 16.4556 13.6398 15.6884 12.9824C15.2741 13.3589 15.2557 13.8514 15.2231 14.3745C14.2293 13.3834 14.3538 11.511 15.1476 10.408C15.4721 9.97245 15.8598 9.61427 16.2924 9.29882C16.3903 9.2276 16.423 9.1584 16.4209 9.0485C17.2066 5.52368 22.5653 6.20341 24.259 8.7005C25.4875 10.2371 25.8589 12.2701 27.2526 13.6968C29.1279 15.7441 31.2645 17.5472 32.9949 19.7268C34.6315 21.7192 35.8008 24.0555 36.8211 26.4102C37.2374 27.1916 37.2415 28.1502 37.8578 28.8177C38.1618 29.2207 39.6474 30.3176 39.325 30.7063C39.5107 31.1092 40.8983 31.6648 40.4167 32.0556H40.4188ZM66.4449 20.0321L63.4269 23.042C62.6228 23.8439 61.6291 24.4422 60.5516 24.7698L60.4965 24.7861L60.4761 24.839C60.1251 25.763 59.5925 26.5872 58.8905 27.2853L55.8724 30.2952C54.5562 31.6079 52.8054 32.3303 50.9402 32.3303C49.0751 32.3303 47.3242 31.6079 46.008 30.2952C43.2879 27.5824 43.2879 23.1702 46.008 20.4574L49.0261 17.4475C49.8342 16.6416 50.8015 16.0616 51.8973 15.7258L51.9524 15.7095L51.9728 15.6566C52.3238 14.7326 52.8584 13.9064 53.5625 13.2022L56.5805 10.1923C57.8967 8.87959 59.6476 8.15712 61.5127 8.15712C63.3779 8.15712 65.1287 8.87959 66.4449 10.1923C67.7612 11.5049 68.4856 13.2511 68.4856 15.1112C68.4856 16.9713 67.7612 18.7194 66.4449 20.0301V20.0321Z" fill="#1D3D3C"/>
</svg>
