<svg xmlns="http://www.w3.org/2000/svg" width="200" height="140" viewBox="0 0 200 140" fill="none">
    <path fill-rule="evenodd" clip-rule="evenodd"
        d="M58.1127 21.9828H95.5097L113.78 54.1729L77.9737 117.041H40.5705L21.8832 84.4475L58.1127 21.9828ZM59.6426 30.1081L28.1167 84.4631L42.127 108.899L73.2984 54.1683L59.6426 30.1081ZM77.9737 56.8706L46.7797 111.641H74.8348L106.029 56.8706H77.9737ZM106.037 51.4706H77.9764L64.305 27.3828H92.3654L106.037 51.4706Z"
        fill="#374151" />
    <path fill-rule="evenodd" clip-rule="evenodd"
        d="M199.662 84.8558L180.963 117.243L143.951 116.97L107.408 54.5266L126.11 22.1345L163.681 22.2478L199.662 84.8558ZM191.86 82.1181L160.55 27.6384L132.383 27.5534L164.196 81.9143L191.86 82.1181ZM159.518 84.6121L127.682 30.2118L113.654 54.5083L145.49 108.909L159.518 84.6121ZM150.163 111.615L164.193 87.3144L191.889 87.5185L177.859 111.819L150.163 111.615Z"
        fill="#374151" />
</svg>