<svg width="37" height="43" viewBox="0 0 37 43" fill="none" xmlns="http://www.w3.org/2000/svg">
<path d="M18.0677 35.9242L5.66811 28.7713C5.51763 28.6811 5.41731 28.5205 5.41731 28.34V17.2846C5.41731 17.094 5.62799 16.9736 5.7885 17.0639L20.1845 25.3705C20.3851 25.4909 20.6359 25.3404 20.6359 25.1096V19.7224C20.6359 19.5118 20.5256 19.3111 20.335 19.2008L3.01965 9.20883C2.86917 9.11854 2.66853 9.11854 2.51805 9.20883L0.250802 10.523C0.100321 10.6133 0 10.7738 0 10.9544V31.49C0 31.6706 0.100321 31.8311 0.250802 31.9214L18.0376 42.1942C18.1881 42.2845 18.3888 42.2845 18.5392 42.1942L33.477 33.5667C33.6776 33.4463 33.6776 33.1654 33.477 33.045L28.8221 30.3564C28.6315 30.2461 28.4108 30.2461 28.2202 30.3564L18.5794 35.9242C18.4289 36.0145 18.2283 36.0145 18.0778 35.9242H18.0677Z" fill="black"/>
<path d="M36.326 10.5131L18.5392 0.250334C18.3887 0.160045 18.1881 0.160045 18.0376 0.250334L8.63754 5.67768C8.4369 5.79806 8.4369 6.07896 8.63754 6.19935L13.2523 8.86787C13.4429 8.97823 13.6636 8.97823 13.8542 8.86787L18.0677 6.44012C18.2182 6.34983 18.4188 6.34983 18.5693 6.44012L30.9689 13.593C31.1194 13.6833 31.2197 13.8438 31.2197 14.0244V25.1298C31.2197 25.3405 31.3301 25.5412 31.5207 25.6515L36.1354 28.31C36.3361 28.4304 36.5869 28.2799 36.5869 28.0492V10.9545C36.5869 10.774 36.4865 10.6135 36.3361 10.5232L36.326 10.5131Z" fill="black"/>
</svg>
