<svg viewBox="0 0 48 27" fill="none" xmlns="http://www.w3.org/2000/svg"  width="100%" height="100%">
<path d="M10.8914 15.2056C10.5229 15.9427 9.47107 15.9427 9.10254 15.2056L8.22118 13.4429C8.08041 13.1614 8.08041 12.83 8.22118 12.5485L9.10254 10.7857C9.47107 10.0487 10.5229 10.0487 10.8914 10.7857L11.7728 12.5485C11.9135 12.83 11.9135 13.1614 11.7728 13.4429L10.8914 15.2056Z" fill="#1D4AFF"/>
<path d="M10.8914 25.2026C10.5229 25.9397 9.47107 25.9397 9.10254 25.2026L8.22118 23.4399C8.08041 23.1584 8.08041 22.827 8.22118 22.5455L9.10254 20.7828C9.47107 20.0457 10.5229 20.0457 10.8914 20.7828L11.7728 22.5455C11.9135 22.827 11.9135 23.1584 11.7728 23.4399L10.8914 25.2026Z" fill="#1D4AFF"/>
<path d="M0 21.4081C0 20.5172 1.07714 20.071 1.70711 20.701L6.29049 25.2844C6.92046 25.9144 6.47429 26.9915 5.58339 26.9915H0.999999C0.447715 26.9915 0 26.5438 0 25.9915V21.4081ZM0 16.5803C0 16.8455 0.105357 17.0999 0.292893 17.2874L9.70411 26.6986C9.89164 26.8861 10.146 26.9915 10.4112 26.9915H15.5804C16.4713 26.9915 16.9175 25.9144 16.2875 25.2844L1.70711 10.704C1.07714 10.074 0 10.5202 0 11.4111V16.5803ZM0 6.58329C0 6.8485 0.105357 7.10286 0.292893 7.29039L19.7011 26.6986C19.8886 26.8861 20.143 26.9915 20.4082 26.9915H25.5774C26.4683 26.9915 26.9145 25.9144 26.2845 25.2844L1.70711 0.707013C1.07715 0.0770533 0 0.523214 0 1.41411V6.58329ZM9.997 6.58329C9.997 6.8485 10.1024 7.10286 10.2899 7.29039L28.2839 25.2844C28.9139 25.9144 29.991 25.4682 29.991 24.5773V19.4081C29.991 19.1429 29.8856 18.8885 29.6981 18.701L11.7041 0.707003C11.0741 0.0770433 9.997 0.523214 9.997 1.41411V6.58329ZM21.7011 0.707013C21.0711 0.0770433 19.994 0.523214 19.994 1.41411V6.58329C19.994 6.8485 20.0994 7.10286 20.2869 7.29039L28.2839 15.2874C28.9139 15.9174 29.991 15.4712 29.991 14.5803V9.4111C29.991 9.1459 29.8856 8.8915 29.6981 8.704L21.7011 0.707013Z" fill="#F9BD2B"/>
<path d="M42.5248 21.531L33.1121 12.1182C32.4821 11.4882 31.405 11.9344 31.405 12.8253V25.9917C31.405 26.544 31.8527 26.9917 32.405 26.9917H46.9856C47.5379 26.9917 47.9856 26.544 47.9856 25.9917V24.7927C47.9856 24.2404 47.536 23.7994 46.9883 23.7281C45.3076 23.5092 43.7355 22.7416 42.5248 21.531ZM36.2035 23.7927C35.3206 23.7927 34.604 23.0761 34.604 22.1932C34.604 21.3102 35.3206 20.5936 36.2035 20.5936C37.0865 20.5936 37.8031 21.3102 37.8031 22.1932C37.8031 23.0761 37.0865 23.7927 36.2035 23.7927Z" fill="black"/>
<path d="M0 25.9917C0 26.544 0.447715 26.9917 1 26.9917H5.58339C6.47429 26.9917 6.92046 25.9146 6.2905 25.2846L1.70711 20.7012C1.07714 20.0712 0 20.5174 0 21.4083V25.9917Z" fill="#1D4AFF"/>
<path d="M9.997 8.9969L1.70711 0.70701C1.07714 0.0770402 0 0.52321 0 1.41411V6.58329C0 6.8485 0.105357 7.10286 0.292893 7.29039L9.997 16.9945V8.9969Z" fill="#1D4AFF"/>
<path d="M1.70711 10.7041C1.07714 10.0741 0 10.5203 0 11.4112V16.5804C0 16.8456 0.105357 17.0999 0.292893 17.2875L9.997 26.9916V18.994L1.70711 10.7041Z" fill="#1D4AFF"/>
<path d="M19.9941 9.4111C19.9941 9.1459 19.8888 8.8915 19.7012 8.704L11.7042 0.70701C11.0743 0.0770402 9.99707 0.52321 9.99707 1.41411V6.58329C9.99707 6.8485 10.1025 7.10286 10.29 7.29039L19.9941 16.9945V9.4111Z" fill="#F54E00"/>
<path d="M9.99707 26.9917H15.5805C16.4714 26.9917 16.9176 25.9146 16.2876 25.2846L9.99707 18.9941V26.9917Z" fill="#F54E00"/>
<path d="M9.99707 8.99707V16.5805C9.99707 16.8457 10.1025 17.1 10.29 17.2876L19.9941 26.9917V19.4083C19.9941 19.1431 19.8888 18.8887 19.7012 18.7012L9.99707 8.99707Z" fill="#F54E00"/>
</svg>
